<svg width="18" height="21" viewBox="0 0 18 21" fill="none" xmlns="http://www.w3.org/2000/svg">
<path fill-rule="evenodd" clip-rule="evenodd" d="M0.750784 11.9478V11.7397C0.781304 11.1242 0.978569 10.5279 1.32224 10.0121C1.89428 9.39259 2.28587 8.63339 2.45593 7.81418C2.45593 7.18103 2.45593 6.53883 2.51123 5.90567C2.79696 2.8575 5.81091 0.75 8.788 0.75H8.86174C11.8388 0.75 14.8528 2.8575 15.1477 5.90567C15.203 6.53883 15.1477 7.18103 15.1938 7.81418C15.3662 8.63529 15.7574 9.39685 16.3275 10.0212C16.6737 10.5323 16.8713 11.1265 16.899 11.7397V11.9387C16.9195 12.7656 16.6347 13.572 16.0971 14.209C15.3866 14.9539 14.4225 15.4173 13.3873 15.5115C10.3516 15.8371 7.28888 15.8371 4.25324 15.5115C3.21919 15.4132 2.25647 14.9505 1.54345 14.209C1.0141 13.5715 0.733129 12.77 0.750784 11.9478Z" stroke="#200E32" stroke-width="1.5" stroke-linecap="round" stroke-linejoin="round"/>
<path d="M6.5022 18.6592C6.97651 19.2545 7.67303 19.6398 8.43763 19.7298C9.20222 19.8198 9.97182 19.607 10.5761 19.1386C10.762 19 10.9292 18.8389 11.0738 18.6592" stroke="#200E32" stroke-width="1.5" stroke-linecap="round" stroke-linejoin="round"/>
</svg>

